<svg id="Layer_1" data-name="Layer 1" xmlns="http://www.w3.org/2000/svg" viewBox="0 0 177.31 77.22"><defs><style>.cls-1{opacity:0.5;}.cls-2,.cls-3,.cls-6{fill:none;}.cls-2,.cls-3,.cls-4,.cls-5,.cls-6{stroke:#cb2027;stroke-miterlimit:10;}.cls-2{opacity:0.35;}.cls-3{opacity:0.75;}.cls-4{fill:#cb2027;}.cls-5{fill:#3d3d3d;}</style></defs><title>logo-background-2</title><g class="cls-1"><circle class="cls-2" cx="33.62" cy="69.12" r="6.33" transform="translate(-42.92 76.18) rotate(-69.33)"/><circle class="cls-3" cx="33.62" cy="69.12" r="4.57" transform="translate(-42.92 76.18) rotate(-69.33)"/><circle class="cls-4" cx="33.62" cy="69.12" r="2.71" transform="translate(-42.92 76.18) rotate(-69.33)"/><circle class="cls-3" cx="21.54" cy="17.27" r="4.57" transform="translate(-2.22 31.33) rotate(-69.33)"/><circle class="cls-4" cx="21.54" cy="17.27" r="2.71" transform="translate(-2.22 31.33) rotate(-69.33)"/><path class="cls-5" d="M21.54,17.27L4.1,53.63Z"/><circle class="cls-4" cx="4.1" cy="53.63" r="2.71" transform="translate(-47.53 38.53) rotate(-69.33)"/><path class="cls-5" d="M33.62,69.12L4.1,53.63Z"/><circle class="cls-4" cx="50.69" cy="5.94" r="2.71" transform="translate(27.24 51.27) rotate(-69.33)"/><path class="cls-5" d="M50.69,5.94L21.54,17.27Z"/><path class="cls-5" d="M50.69,5.94L33.62,69.12Z"/><circle class="cls-4" cx="27.35" cy="39.9" r="2.71" transform="translate(-19.63 51.4) rotate(-69.33)"/><circle class="cls-3" cx="71.1" cy="40.19" r="4.57" transform="translate(8.4 92.53) rotate(-69.33)"/><circle class="cls-4" cx="71.1" cy="40.19" r="2.71" transform="translate(8.4 92.53) rotate(-69.33)"/><line class="cls-6" x1="4.1" y1="53.63" x2="27.78" y2="39.9"/><line class="cls-6" x1="33.62" y1="69.12" x2="27.35" y2="39.9"/><line class="cls-6" x1="50.69" y1="5.94" x2="71.1" y2="40.19"/><line class="cls-6" x1="33.62" y1="69.12" x2="71.1" y2="40.19"/><line class="cls-6" x1="21.54" y1="17.27" x2="71.1" y2="40.19"/><line class="cls-6" x1="27.35" y1="40.54" x2="50.69" y2="5.94"/><circle class="cls-3" cx="79.27" cy="10.51" r="4.57" transform="translate(41.46 80.97) rotate(-69.33)"/><circle class="cls-4" cx="79.27" cy="10.51" r="2.71" transform="translate(41.46 80.97) rotate(-69.33)"/><circle class="cls-4" cx="73.24" cy="71.39" r="2.71" transform="translate(-19.41 114.72) rotate(-69.33)"/><circle class="cls-2" cx="117.95" cy="15.12" r="6.33" transform="translate(62.17 120.14) rotate(-69.33)"/><circle class="cls-3" cx="117.95" cy="15.12" r="4.57" transform="translate(62.17 120.14) rotate(-69.33)"/><circle class="cls-4" cx="117.95" cy="15.12" r="2.71" transform="translate(62.17 120.14) rotate(-69.33)"/><line class="cls-6" x1="50.69" y1="5.94" x2="79.88" y2="10.51"/><line class="cls-6" x1="71.1" y1="40.19" x2="117.95" y2="15.12"/><line class="cls-6" x1="79.27" y1="10.51" x2="117.95" y2="15.12"/><line class="cls-6" x1="73.24" y1="71.39" x2="71.1" y2="40.19"/><line class="cls-6" x1="117.95" y1="15.12" x2="73.24" y2="71.39"/><line class="cls-6" x1="33.62" y1="69.12" x2="73.24" y2="71.39"/><circle class="cls-4" cx="123.47" cy="44.52" r="2.71" transform="translate(38.23 144.33) rotate(-69.33)"/><circle class="cls-3" cx="97.5" cy="66.94" r="4.57" transform="translate(0.46 134.53) rotate(-69.33)"/><circle class="cls-4" cx="97.5" cy="66.94" r="2.71" transform="translate(0.46 134.53) rotate(-69.33)"/><circle class="cls-2" cx="169.4" cy="69.12" r="6.33" transform="translate(44.93 203.22) rotate(-69.33)"/><circle class="cls-3" cx="169.4" cy="69.12" r="4.57" transform="translate(44.93 203.22) rotate(-69.33)"/><circle class="cls-4" cx="169.4" cy="69.12" r="2.71" transform="translate(44.93 203.22) rotate(-69.33)"/><circle class="cls-4" cx="162.44" cy="11.6" r="2.71" transform="translate(94.25 159.49) rotate(-69.33)"/><circle class="cls-3" cx="150.61" cy="36.2" r="4.57" transform="translate(63.57 164.34) rotate(-69.33)"/><circle class="cls-4" cx="150.61" cy="36.2" r="2.71" transform="translate(63.57 164.34) rotate(-69.33)"/><line class="cls-6" x1="117.95" y1="15.12" x2="123.47" y2="44.52"/><line class="cls-6" x1="97.5" y1="66.94" x2="123.47" y2="44.52"/><line class="cls-6" x1="73.24" y1="71.39" x2="97.5" y2="66.94"/><line class="cls-6" x1="71.1" y1="40.19" x2="97.5" y2="66.94"/><line class="cls-6" x1="150.61" y1="36.2" x2="123.47" y2="44.52"/><line class="cls-6" x1="162.44" y1="11.6" x2="150.61" y2="36.2"/><line class="cls-6" x1="169.4" y1="69.12" x2="150.61" y2="36.2"/><circle class="cls-3" cx="135.5" cy="61.38" r="4.57" transform="translate(30.25 166.49) rotate(-69.33)"/><circle class="cls-4" cx="135.5" cy="61.38" r="2.71" transform="translate(30.25 166.49) rotate(-69.33)"/><line class="cls-6" x1="123.47" y1="44.52" x2="135.5" y2="61.38"/><line class="cls-6" x1="169.91" y1="69.16" x2="135.5" y2="61.38"/><line class="cls-6" x1="162.44" y1="11.6" x2="117.95" y2="15.12"/><line class="cls-6" x1="169.91" y1="69.16" x2="162.44" y2="11.6"/><line class="cls-6" x1="135.5" y1="61.38" x2="97.5" y2="66.94"/><line class="cls-6" x1="123.47" y1="44.52" x2="71.1" y2="40.19"/><line class="cls-6" x1="162.44" y1="11.6" x2="123.47" y2="44.52"/></g></svg>